<svg width="25" height="25" viewBox="0 0 25 25" fill="none" xmlns="http://www.w3.org/2000/svg">
<path fill-rule="evenodd" clip-rule="evenodd" d="M9.34198 0.680602C6.35121 1.1349 3.77022 2.8753 2.19177 5.50221C1.46737 6.70773 0.99192 8.15213 0.840094 9.60847C0.764919 10.3294 0.808686 11.6568 0.930212 12.3433C1.69755 16.6773 5.05091 19.941 9.42204 20.6083C10.1289 20.7162 11.5097 20.7171 12.2123 20.6101C14.4579 20.2682 16.4062 19.277 17.9634 17.6841C18.7623 16.8669 19.3387 16.0519 19.8255 15.0511C21.6766 11.2454 20.9669 6.71449 18.0424 3.66721C17.1864 2.77527 16.3693 2.17694 15.2562 1.62669C14.1763 1.09296 13.2468 0.805343 12.1248 0.657691C11.3766 0.559287 10.07 0.570025 9.34198 0.680602ZM12.2906 3.54566C13.8173 3.87614 15.2262 4.70142 16.229 5.8526C18.1735 8.08483 18.5806 11.2629 17.2582 13.8875C15.646 17.0873 12.0282 18.6036 8.59189 17.5199C6.30638 16.799 4.42793 14.8012 3.84239 12.4686C3.64961 11.7007 3.59312 11.1439 3.62581 10.3337C3.70154 8.456 4.39426 6.87617 5.72943 5.53623C6.87688 4.38459 8.1989 3.71303 9.82015 3.45818C10.2977 3.38315 11.7827 3.43573 12.2906 3.54566ZM19.7195 18.0944C19.4138 18.4724 18.7685 19.1255 18.328 19.5027C18.1351 19.6679 17.9772 19.8209 17.9772 19.8426C17.9772 19.8643 18.9008 20.7922 20.0296 21.9046C21.7791 23.6286 22.1227 23.9466 22.3586 24.0597C23.1032 24.4168 24.0305 24.0481 24.3193 23.2802C24.4611 22.9028 24.4338 22.4114 24.2523 22.0768C24.1584 21.9035 23.5696 21.2923 22.0805 19.8221C20.9569 18.7127 20.0187 17.8051 19.9955 17.8051C19.9724 17.8051 19.8482 17.9353 19.7195 18.0944Z" fill="white"/>
</svg>
